<?xml version="1.0" encoding="UTF-8" standalone="no"?>
<!-- Created with Inkscape (http://www.inkscape.org/) -->

<svg
   version="1.1"
   id="svg2"
   xml:space="preserve"
   width="2666.6667"
   height="2666.6667"
   viewBox="0 0 2666.6667 2666.6667"
   sodipodi:docname="18915856.eps"
   xmlns:inkscape="http://www.inkscape.org/namespaces/inkscape"
   xmlns:sodipodi="http://sodipodi.sourceforge.net/DTD/sodipodi-0.dtd"
   xmlns="http://www.w3.org/2000/svg"
   xmlns:svg="http://www.w3.org/2000/svg"><defs
     id="defs6" /><sodipodi:namedview
     id="namedview4"
     pagecolor="#ffffff"
     bordercolor="#666666"
     borderopacity="1.0"
     inkscape:pageshadow="2"
     inkscape:pageopacity="0.0"
     inkscape:pagecheckerboard="0" /><g
     id="g8"
     inkscape:groupmode="layer"
     inkscape:label="ink_ext_XXXXXX"
     transform="matrix(1.3333333,0,0,-1.3333333,0,2666.6667)"><g
       id="g10"
       transform="scale(0.1)"><path
         d="M 0,0 H 20000 V 20000 H 0 V 0"
         style="fill:#ffffff;fill-opacity:1;fill-rule:nonzero;stroke:none"
         id="path12" /><path
         d="m 8998.05,2481.2 c -69.23,-82.1 -224.33,-11.7 -261.2,70.7 -46.64,104.4 14.72,243.6 135.88,252.1 55.86,3.9 90.48,1.9 137.12,-34.5 99.92,-78 57.88,-205.6 -11.8,-288.3 z m -375.16,1947.9 c -46.65,104.3 14.72,243.6 135.99,252.1 55.86,3.9 90.36,1.9 137.12,-34.5 99.81,-78 57.88,-205.6 -11.91,-288.3 -69.12,-82.2 -224.34,-11.7 -261.2,70.7 z M 9336.92,3300 c -6.29,198.9 -12.81,397.9 -21.81,596.9 -18.09,402.3 -46.19,804.7 -102.72,1203.7 -94.64,668 -343.48,1262.4 -517.58,1907.3 -69,255.6 -123.18,515.1 -164.54,776.6 -77.21,487.6 -107.9,977.9 -103.74,1470.4 4.16,482.7 39.11,970.1 208.6,1426.4 92.05,248 194.22,559 395.85,741.1 31.92,28.8 88.57,60.5 114.87,87.4 0,0.3 -0.01,0.5 -0.01,0.7 9.98,7.7 19.7,15.5 28.93,23.9 6.9,44.6 15.27,89.1 21.93,134.3 0.57,3.3 1.02,6.8 1.48,10.2 -104.17,8.4 -219.18,-66.9 -310.8,-106.6 -218.29,-95 -442.42,-176.1 -659.97,-273.2 -100.12,-44.7 -201.76,-91.5 -299.54,-139 -95.46,-46.5 -170.46,-124.6 -266.36,-171.3 -107.2,-52.2 -214.63,-103.9 -323.63,-152.6 -82.38,-36.9 -165.1,-73.5 -247.22,-111.2 58.73,-158.4 135.13,-310.2 227.25,-451.7 -2.91,-10.2 -5.83,-20.4 -9.02,-30.6 -80.92,-257.3 -238.72,-479.4 -346.39,-724.9 -26.42,-60.3 -48.56,-121.7 -70.47,-182.8 l 0.22,-0.1 c 49.34,-26.8 51.36,-87 68.11,-138.9 139.03,-430.7 -88.9,-679.5 -151.5,-1082.5 -50.24,-322.6 70.47,-614.4 57.09,-929.5 -8.66,-203.3 -121.5,-377.4 -173.76,-569.3 -23.38,-86 -39.68,-173.6 -52.04,-261.8 -116.78,-840.9 -305.93,-1677.5 -470.59,-2511.7 -39.45,-199.8 -73.61,-415.7 -125.2,-626.8 l 0.44,-0.1 c 53.06,-645.2 59.91,-1305.2 54.97,-1957.3 H 9333.1 c 14.16,291.4 24.83,583.1 25.73,874.9 1.36,392.4 -9.44,776.7 -21.91,1168.1"
         style="fill:#4f95cf;fill-opacity:1;fill-rule:nonzero;stroke:none"
         id="path14" /><path
         d="m 6914.29,15978.3 c 31.35,-19.6 32.99,-64.6 5.94,-86.5 -32.11,-26.1 -68.9,-30 -107.96,-24.7 -53.73,7.4 -109.74,10.9 -163.59,13.6 -63.59,3.1 -127.43,3.5 -191.15,5.6 -46.27,1.7 -127.8,-7 -164.97,26.8 -47.15,43.2 -6.83,85.3 42.86,95.6 45.25,9.2 92.41,-0.2 137.29,-2.1 32.74,-1.3 66.11,-2.9 99.23,-4.1 70.67,-2.4 141.47,-1.2 212.14,-1.9 43.36,-0.3 92.03,1.8 130.21,-22.3"
         style="fill:#ffbc3b;fill-opacity:1;fill-rule:nonzero;stroke:none"
         id="path16" /><path
         d="m 6472.2,17003.6 c 60.17,-3.8 55.75,-69.9 19.09,-99.7 -5.06,-20.1 -36.66,-25.7 -52.84,-37.8 -24.28,-18.1 -156.77,-120.7 -177.37,-142.7 -18.46,-19.8 -40.58,-29.6 -62.58,-45.4 -28.82,-20.6 -124.52,-93.6 -155.24,-36.9 -9.1,16.8 -2.78,38.8 6.19,53.8 19.85,33.1 57.15,57 90.52,74.7 31.23,16.5 66.37,39.1 88.49,66.8 21.12,26.3 155.75,119.7 181.41,140.4 17.58,14.2 38.56,28.5 62.33,26.8"
         style="fill:#ffbc3b;fill-opacity:1;fill-rule:nonzero;stroke:none"
         id="path18" /><path
         d="m 6472.08,14886.9 c 8.34,-36.1 -22,-69.2 -56.64,-65.6 -41.22,4 -70.17,27.1 -94.19,58.4 -32.99,43 -70.16,84.9 -106.57,124.7 -42.98,47.1 -88.11,92.2 -131.73,138.6 -31.72,33.8 -95.82,84.8 -98.35,135.1 -3.29,63.9 55.12,65.4 97.6,37.7 38.68,-25.1 65.48,-65.1 96.08,-98 22.37,-24.1 45,-48.6 67.63,-72.8 48.54,-51.4 99.62,-100.3 149.43,-150.7 30.47,-30.7 66.49,-63.6 76.74,-107.4"
         style="fill:#ffbc3b;fill-opacity:1;fill-rule:nonzero;stroke:none"
         id="path20" /><path
         d="m 5801.8,15901.3 c 14.66,-92.1 -91.4,-88.9 -158.53,-85 19.98,40 45.39,76.7 79.52,106.2 33,28.6 70.92,29.8 79.01,-21.2"
         style="fill:#ffbc3b;fill-opacity:1;fill-rule:nonzero;stroke:none"
         id="path22" /><path
         d="m 5635.18,14678.8 c 0,-2.8 -9.48,1.4 -14.66,3.1 -9.87,3.2 -20.23,7 -29.71,10.9 -22.63,9.1 -38.69,16.2 -62.2,21.8 -109.1,25.8 -217.69,64.8 -324.39,98.8 h -3.03 c -0.13,30.5 1.51,61.5 -0.51,91.6 -1.27,19.3 -8.47,41.2 -9.23,61.9 l 1.65,0.1 c 0,-10.1 196.32,-77.1 214.65,-82.6 71.43,-21.5 144.12,-35.6 211,-69.5 8.47,-4.3 19.72,-15.4 28.19,-12.5 h 3.67 c -0.26,-41.8 -2.41,-83.5 -9.49,-124.6 l -5.94,1"
         style="fill:#dedede;fill-opacity:1;fill-rule:nonzero;stroke:none"
         id="path24" /><path
         d="m 5620.52,14681.9 c 5.18,-1.7 14.66,-5.9 14.66,-3.1 l 5.94,-1 c -1.77,-10.8 -3.92,-21.5 -6.45,-32.1 -7.83,-32.3 -12.76,-63.9 -29.2,-93.1 -4.67,-8.3 -9.73,-16.2 -15.17,-23.7 l -1.13,0.7 c -28.83,11.7 -58.29,28.3 -88.75,38.3 -95.07,31.1 -191.02,72.8 -283.05,111.9 l -9.99,-0.1 c -0.38,27.7 0.76,55.6 -3.03,83.2 -2.28,16.5 -3.04,33.5 -3.16,50.5 h 3.03 c 106.7,-34 215.29,-73 324.39,-98.8 23.51,-5.6 39.57,-12.7 62.2,-21.8 9.48,-3.9 19.84,-7.7 29.71,-10.9"
         style="fill:#dedede;fill-opacity:1;fill-rule:nonzero;stroke:none"
         id="path26" /><path
         d="m 5325.96,15017.5 c -0.51,0 -0.89,0 -1.39,0 -7.59,109.6 -41.97,215.6 -58.66,324.6 -20.86,136.8 -33.38,282.1 -81.16,412.8 -7.71,20.8 -16.31,41.4 -26.29,61.4 8.09,0.5 15.67,0.9 22.37,1.3 25.79,1.2 53.73,11 78.13,19.6 27.81,9.8 50.82,28.7 72.44,48.1 20.35,18.1 45.13,35.1 60.17,57.8 1.64,2.5 3.29,5.2 4.93,7.8 35.02,-51.5 84.96,-92.1 146.4,-113.7 24.27,-8.6 52.21,-18.4 78.12,-19.6 6.7,-0.4 14.16,-0.8 22.25,-1.3 -9.98,-20 -18.58,-40.6 -26.17,-61.4 -47.91,-130.7 -60.43,-276 -81.28,-412.8 -15.05,-98.6 -50.44,-199.3 -51.21,-299.5 0,-9.2 1.4,-18.6 1.52,-27.8 -53.6,-0.4 -107.45,1.1 -160.17,2.7"
         style="fill:#ffbc3b;fill-opacity:1;fill-rule:nonzero;stroke:none"
         id="path28" /><path
         d="m 5589.17,14529.6 1.13,-0.7 c -12.51,-17.6 -27.05,-33.3 -44.25,-47.2 -40.96,-33.2 -106.31,-37.8 -156.38,-31.3 -60.42,7.9 -112.89,45 -145.25,95.9 -16.31,25.8 -28.44,55.4 -33.38,85.5 -2.65,15.8 -3.41,31.8 -3.66,47.9 l 9.99,0.1 c 92.03,-39.1 187.98,-80.8 283.05,-111.9 30.46,-10 59.92,-26.6 88.75,-38.3"
         style="fill:#dedede;fill-opacity:1;fill-rule:nonzero;stroke:none"
         id="path30" /><path
         d="m 5433.04,16113 c 1.13,-55 -7.97,-114.3 -36.54,-162.1 -25.41,37.5 -42.98,80.7 -51.32,126.7 -6.7,36.7 -6.7,104.1 32.23,125.6 39.45,21.6 55.25,-69.4 55.63,-90.2"
         style="fill:#ffbc3b;fill-opacity:1;fill-rule:nonzero;stroke:none"
         id="path32" /><path
         d="m 5426.59,17411 c 12.64,-16.3 -2.41,-44.7 -2.91,-64.9 -0.63,-30.3 -1.52,-197.8 3.16,-227.5 4.18,-26.8 -1.64,-50.4 -2.78,-77.4 -1.52,-35.4 -3.03,-155.6 -66.62,-145 -18.84,3.1 -32.37,21.7 -38.56,38 -13.9,36.1 -9.73,80.2 -3.04,117.4 6.2,34.6 9.99,76.3 1.9,110.7 -7.71,32.9 1.77,196.6 1.27,229.4 -0.38,22.7 1.26,48 17.19,65.8 40.2,45 89.38,0.7 90.39,-46.5"
         style="fill:#ffbc3b;fill-opacity:1;fill-rule:nonzero;stroke:none"
         id="path34" /><path
         d="m 5325.96,15017.5 c -0.38,-1.4 0.25,-2.2 -1.14,-3.6 -0.12,1.2 -0.12,2.4 -0.25,3.6 0.5,0 0.88,0 1.39,0"
         style="fill:#8cc295;fill-opacity:1;fill-rule:nonzero;stroke:none"
         id="path36" /><path
         d="m 5221.28,15020.3 -11.75,-6 -2.91,8.9 c -15.3,41.2 -31.48,76.7 -55.75,113.9 -57.77,88.6 -154.36,129.5 -233.12,194.1 -189.5,155.3 -307.19,400.5 -319.83,646.8 -20.49,398.3 283.42,774.8 691.88,784.1 178.38,4 378.63,-34.3 523.63,-141 139.44,-102.4 246.9,-247.4 298.73,-413 53.47,-170.3 47.91,-355.4 -12.14,-523.1 -30.08,-84.2 -73.45,-163.5 -127.68,-234.4 -58.4,-76.4 -145.13,-122.8 -204.8,-195.5 -54.23,-65.8 -129.96,-132.2 -137.42,-222.7 l -1.01,-9.6 -5.43,-2.2 c -45.14,-4 -91.15,-5.5 -137.55,-5.8 -0.12,9.2 -1.52,18.6 -1.52,27.8 0.77,100.2 36.16,200.9 51.21,299.5 20.85,136.8 33.37,282.1 81.28,412.8 7.59,20.8 16.19,41.4 26.17,61.4 67.13,-3.9 173.19,-7.1 158.53,85 -8.09,51 -46.01,49.8 -79.01,21.2 -34.13,-29.5 -59.54,-66.2 -79.52,-106.2 -8.09,0.5 -15.55,0.9 -22.25,1.3 -25.91,1.2 -53.85,11 -78.12,19.6 -61.44,21.6 -111.38,62.2 -146.4,113.7 28.57,47.8 37.67,107.1 36.54,162.1 -0.38,20.8 -16.18,111.8 -55.63,90.2 -38.93,-21.5 -38.93,-88.9 -32.23,-125.6 8.34,-46 25.91,-89.2 51.32,-126.7 -1.64,-2.6 -3.29,-5.3 -4.93,-7.8 -15.04,-22.7 -39.82,-39.7 -60.17,-57.8 -21.62,-19.4 -44.63,-38.3 -72.44,-48.1 -24.4,-8.6 -52.34,-18.4 -78.13,-19.6 -6.7,-0.4 -14.28,-0.8 -22.37,-1.3 -19.98,40 -45.39,76.7 -79.52,106.2 -33,28.6 -70.8,29.8 -79.01,-21.2 -14.67,-92.1 91.4,-88.9 158.53,-85 9.98,-20 18.58,-40.6 26.29,-61.4 47.78,-130.7 60.3,-276 81.16,-412.8 16.69,-109 51.07,-215 58.66,-324.6 -35.02,1 -69.53,2.1 -103.29,2.8"
         style="fill:#ffbc3b;fill-opacity:1;fill-rule:nonzero;stroke:none"
         id="path38" /><path
         d="m 5193.1,14967 -1.65,-0.1 c -0.76,17.3 2.91,33.9 18.08,47.4 l 11.75,6 c 33.76,-0.7 68.27,-1.8 103.29,-2.8 0.13,-1.2 0.13,-2.4 0.25,-3.6 1.39,1.4 0.76,2.2 1.14,3.6 52.72,-1.6 106.57,-3.1 160.17,-2.7 46.4,0.3 92.41,1.8 137.55,5.8 l 5.43,2.2 c 20.73,-13.3 21.74,-43.6 21.74,-65.6 0.13,-30 -1.64,-59.6 -1.01,-89.8 0.51,-21.6 0.89,-43.3 0.77,-65 h -3.67 c -8.47,-2.9 -19.72,8.2 -28.19,12.5 -66.88,33.9 -139.57,48 -211,69.5 -18.33,5.5 -214.65,72.5 -214.65,82.6"
         style="fill:#dedede;fill-opacity:1;fill-rule:nonzero;stroke:none"
         id="path40" /><path
         d="m 5078.94,15922.5 c 34.13,-29.5 59.54,-66.2 79.52,-106.2 -67.13,-3.9 -173.2,-7.1 -158.53,85 8.21,51 46.01,49.8 79.01,21.2"
         style="fill:#ffbc3b;fill-opacity:1;fill-rule:nonzero;stroke:none"
         id="path42" /><path
         d="m 4652.78,15315.8 c 42.6,27.7 100.88,26.2 97.72,-37.7 -2.53,-50.3 -66.62,-101.3 -98.35,-135.1 -43.74,-46.4 -88.75,-91.5 -131.86,-138.6 -36.28,-39.8 -73.57,-81.7 -106.57,-124.7 -24.02,-31.3 -52.97,-54.4 -94.05,-58.4 -34.64,-3.6 -65.11,29.5 -56.76,65.6 10.23,43.8 46.39,76.7 76.86,107.4 49.81,50.4 100.88,99.3 149.42,150.7 22.63,24.2 45.26,48.7 67.64,72.8 30.46,32.9 57.39,72.9 95.95,98"
         style="fill:#ffbc3b;fill-opacity:1;fill-rule:nonzero;stroke:none"
         id="path44" /><path
         d="m 4563.02,16654.8 c 35.02,-36.7 44,-94.4 -19.22,-102.9 -49.93,-6.5 -111.88,47.1 -150.81,72.1 -53.61,34.5 -106.19,70.5 -160.3,104.3 -45.77,28.6 -93.8,57.5 -142.09,82 -35.15,18 -63.09,42.3 -74.72,82 -9.61,33.3 17.32,69.2 54.24,67.6 45,-2 83.94,-31.5 119.71,-55.9 58.53,-39.8 115.93,-81 175.47,-119.3 27.82,-18 56.13,-35.7 83.82,-53.2 37.93,-24.2 82.05,-43.3 113.9,-76.7"
         style="fill:#ffbc3b;fill-opacity:1;fill-rule:nonzero;stroke:none"
         id="path46" /><path
         d="m 4399.56,16008.7 c 49.81,-10.3 90.14,-52.4 42.86,-95.6 -37.17,-33.8 -118.58,-25.1 -164.85,-26.8 -63.72,-2.1 -127.56,-2.5 -191.27,-5.6 -53.86,-2.7 -109.74,-6.2 -163.46,-13.6 -39.07,-5.3 -75.98,-1.4 -108.09,24.7 -26.93,21.9 -25.29,66.9 5.94,86.5 38.18,24.1 86.98,22 130.34,22.3 70.67,0.7 141.46,-0.5 212.13,1.9 33.12,1.2 66.37,2.8 99.24,4.1 44.88,1.9 92.03,11.3 137.16,2.1"
         style="fill:#ffbc3b;fill-opacity:1;fill-rule:nonzero;stroke:none"
         id="path48" /><path
         d="m 10157.2,12137.6 0.2,6.5 c 292,9.6 633,179.5 884,374.8 l 5.2,-6.6 c -10.6,-84.4 -5.6,-177.2 -11.9,-252.9 -12.4,-148.5 -20.2,-302 -8.9,-451.6 -173.4,-10.5 -341.2,-55 -520.7,-40.6 -200.5,16.1 -414.5,67.9 -601.83,140.9 -164.99,64.1 -311.67,170.6 -452.05,276.6 -95.87,72.3 -171.17,158.5 -253.22,245 -14.61,15.4 -30.01,35.8 -46.31,56.6 95.31,-53.5 192.42,-104.3 291.1,-156 121.05,-63.4 250.53,-105.4 382.59,-141.4 106.44,-29.1 222.72,-48.2 331.82,-51.3"
         style="fill:#e39476;fill-opacity:1;fill-rule:nonzero;stroke:none"
         id="path50" /><path
         d="m 8896,4646.7 c 99.81,-78 57.88,-205.6 -11.91,-288.3 -69.12,-82.2 -224.34,-11.7 -261.2,70.7 -46.65,104.3 14.72,243.6 135.99,252.1 55.86,3.9 90.36,1.9 137.12,-34.5"
         style="fill:#37628f;fill-opacity:1;fill-rule:nonzero;stroke:none"
         id="path52" /><path
         d="m 13970.6,1257 h -2645.8 c 3.7,405.4 9,813.7 -27.1,1215.6 -30.3,338 -48.5,677.5 -39.4,1016.9 7.5,278.8 -14.6,561.5 -5.2,842.3 10.5,314.2 78,626.6 90.9,942.1 9.7,235.3 50.2,462.9 100,692.9 57.1,263.9 53.5,535.8 125.6,799 73,265.8 150.3,530.1 203,802.3 48,247.6 77.5,497.3 128.2,743.7 115.1,558.5 117.9,1123.6 26.7,1686.2 -26.6,164.3 -38,327.6 -78.7,489.9 -79.7,317.5 -224.5,627.1 -472.5,847.8 -91.7,81.6 -217.3,121.1 -306.8,197 -8.4,44.4 -18.1,88.5 -26.2,133.5 -0.7,3.4 -1.3,6.8 -1.8,10.2 103.8,11.7 221.2,-59.9 314,-96.8 221.2,-88 447.8,-161.9 668.3,-252.1 101.5,-41.4 204.5,-85 303.8,-129.4 96.9,-43.4 174.3,-119.2 271.6,-162.8 108.8,-48.8 217.9,-97 328.3,-142.3 235,-96.4 472.4,-189.4 692.6,-317.1 292.2,-169.5 566.9,-339 799.6,-590.3 217.4,-234.9 390.3,-544.9 540.6,-825.6 166.6,-310.6 292.2,-657.9 404.8,-991.3 27.2,-80.8 67.2,-162.2 83,-245.9 29.5,-157.6 40.2,-322 64,-481.4 27,-180.1 51.4,-360.8 73.9,-541.6 45.5,-367.7 82.5,-736.5 114.4,-1105.6 40.7,-470.7 35.6,-944.3 86.1,-1414.3 49.3,-460.3 228.9,-873.4 306.5,-1325.1 50.2,-293 -8.3,-586.9 -27.4,-879.8 -10.4,-157.8 47.7,-310.3 45.8,-467.3 -1.8,-151.2 -42.3,-299 -46.5,-450.7 h -2094.3"
         style="fill:#4f95cf;fill-opacity:1;fill-rule:nonzero;stroke:none"
         id="path54" /><path
         d="m 5396.41,9681 c -15.85,74.7 -25.52,150 -39.56,226.1 -14.84,80.4 -32.93,160.2 -51.03,239.9 -75.64,332.9 -132.62,643.4 -27.65,977 94.3,299.5 257.83,574.2 329.43,881.4 49.11,210.6 37.42,422.2 30.57,636.9 -8.55,263.1 5.16,527.1 6.74,790.3 1.13,184.2 -20.46,451.9 162.18,563.7 51.82,31.7 83.29,32.3 138.58,7.3 157.92,-71.3 187.59,-304.8 194.45,-454.3 19.1,-418.7 3.37,-836 1.68,-1255.1 -0.11,-22.7 4.16,-36.7 5.06,-57.4 57.88,2.3 115.65,-4.3 170.27,-20.8 244.24,-73.6 410.24,-290.6 560.17,-486.6 34.06,143.1 113.52,316.4 263.23,366.8 45.52,15.3 84.52,26 129.7,9.4 68.78,-25.2 131.95,-68 164.77,-135.3 70.81,-144.7 -2.36,-325.1 -34.28,-470.7 -22.03,-100.5 -48.89,-199.2 -48.33,-303.8 0.45,-114.1 19.45,-227 22.25,-341 2.25,-92.6 1.8,-186 -5.17,-278.8 -8.43,-113 -26.52,-224.9 -60.58,-333.3 -80.92,-257.3 -238.72,-479.4 -346.39,-724.9 -26.42,-60.3 -48.56,-121.7 -70.47,-182.8 -63.62,-176.9 -125.66,-349.3 -287.28,-473.1 -212.87,-163.4 -497.68,-109.7 -713.92,17.2 -117.68,69 -222.99,160.9 -307.17,268.3 -47.1,60.1 -63.05,102.4 -76.55,174.8 -17.64,94.7 -63.5,185.2 -90.47,277.5 -7.87,27 -14.5,54.1 -20.23,81.3"
         style="fill:#f5b49b;fill-opacity:1;fill-rule:nonzero;stroke:none"
         id="path56" /><path
         d="m 10731.6,13825.3 c 50.1,-123.4 -58.8,-262.3 -140.3,-346.1 -135.3,-139 -312.1,-219.6 -508.8,-194.2 -110.67,14.4 -198.79,39.1 -292.97,101 -85.31,56.1 -165.78,123.2 -226.7,205.6 -47.65,64.5 -85.31,181.8 -31.81,254.2 44.28,60 129.25,80.8 200.51,73.4 65.64,-6.7 133.07,-7.7 198.94,-12.5 61.82,-4.3 123.03,-1.9 184.63,0.9 80.6,3.8 161.8,-0.3 241.9,10.2 73.2,9.5 144.8,39.9 219.3,23.7 68.5,-14.9 127.5,-48 155.3,-116.2"
         style="fill:#ffffff;fill-opacity:1;fill-rule:nonzero;stroke:none"
         id="path58" /><path
         d="m 7599.2,14791.5 c -11.35,79.7 -20.34,159.6 -29.78,238.9 -10.34,86.7 -17.65,175.7 -44.51,259.9 -54.06,169.1 -158.58,316.5 -216.13,484.3 -26.97,78.8 -42.37,150.5 -41.25,234.2 1.35,91 13.38,181.3 21.24,271.9 13.04,151.5 44.74,300.8 80.14,448.5 46.65,194.4 116.67,395.4 95.65,597.3 -2.48,23.4 -5.51,46.7 -8.43,70.1 -19.33,152.4 32.14,265.3 101.83,396.3 107.56,202.4 267.94,390.1 473.62,498 226.02,118.5 502.06,158.5 738.2,261 101.49,44.1 199.05,97 292.11,157 38.11,24.6 67.1,56.3 107.23,77.1 60.46,31.3 124.53,56.8 186.68,83.5 74.52,31.9 153.98,56.8 233.78,71.1 243.67,43.5 507.42,28.6 744.92,-39.7 233,-66.8 475,-209.5 532.6,-463 14.9,-65.2 63.7,-59 122.9,-59 175,39.8 362.8,-0.1 518.5,-85.5 226.6,-124 303.1,-339.5 425,-549.7 108.3,-186.6 259.8,-342.6 392.4,-511.5 168.7,-214.9 297.2,-457.5 255.4,-738.9 -19.5,-131.2 -39.6,-254.3 -35.6,-385.9 4.1,-133.9 -59.7,-285.5 -93.1,-413.8 -21.7,-83.1 -29.7,-173.2 -62.2,-251.6 -77.9,-187.3 -90.6,-384.8 -81.7,-584.2 0.6,-14.5 1.2,-29 2.1,-43.6 2.9,-47.4 -0.7,-111.8 -4.5,-159.9 -3,-38.9 -6.4,-74.7 -19.6,-111.4 -11.4,-31.4 -37.7,-79.6 -75.9,-85.3 -124.9,-18.4 -100.9,344.2 -102.8,411 -6.3,220.4 -45.3,466.9 -172.2,653.5 -65.9,96.8 -106.3,219.3 -133.3,333.1 -30,126.1 -37.9,244.9 -37.8,373.5 0.3,200.2 14.8,402.2 -92.5,584.2 -98,166.3 -299.3,239.8 -483,253.6 -44.1,3.3 -72.1,0.5 -115.2,3.1 -297.2,17.9 -589.9,-2.6 -866.3,-118.7 -87.1,-36.6 -182.5,-51.6 -276.67,-49.8 -242.21,4.4 -471.38,101.2 -705.94,150.4 -115.66,24.4 -225.13,30 -341.79,22 -120.94,-8.3 -242.21,-15.8 -342.69,-93.1 -90.59,-69.7 -152.51,-170.2 -187.58,-277.9 -24.39,-74.5 -37.88,-152.3 -45.74,-230 -9.79,-97.7 18.43,-190.7 10.33,-287.4 -14.05,-168.6 -45.07,-330.4 -126.66,-480.1 -21.14,-39 -35.63,-80.7 -53.5,-121.1 -16.19,-36.6 -40.58,-63.5 -62.38,-96.7 -47.77,-72.7 -100.82,-143.3 -133.98,-224.4 -75.52,-185.1 -27.87,-387.9 -25.17,-580.5 1.13,-78.8 0.45,-164.5 -51.36,-229.2 -53.51,-66.8 -124.99,-48.3 -176.01,11.7 -53.28,62.4 -59.12,141.8 -72.61,219 -6.29,35.9 -11.8,71.7 -16.75,107.7"
         style="fill:#1e244a;fill-opacity:1;fill-rule:nonzero;stroke:none"
         id="path60" /><path
         d="m 11041.5,11676.4 c 0.5,-3.4 1.1,-6.8 1.8,-10.2 -3.5,2.1 -6.9,1.7 -8,9.4 2,0.4 4.2,0.6 6.2,0.8"
         style="fill:#8cc295;fill-opacity:1;fill-rule:nonzero;stroke:none"
         id="path62" /><path
         d="m 11133.8,15072.2 c 13.6,-70.3 -9.2,-145.1 -47.9,-203.7 -43.1,-65 -138,-73.4 -208.6,-54 -157.6,43.2 -204,230.3 -93.8,347.3 58.9,62.6 158.7,107.1 241.1,63.5 50.7,-26.8 98.4,-97.5 109.2,-153.1"
         style="fill:#2b1a0f;fill-opacity:1;fill-rule:nonzero;stroke:none"
         id="path64" /><path
         d="m 9009.85,2769.5 c 99.92,-78 57.88,-205.6 -11.8,-288.3 -69.23,-82.1 -224.33,-11.7 -261.2,70.7 -46.64,104.4 14.72,243.6 135.88,252.1 55.86,3.9 90.48,1.9 137.12,-34.5"
         style="fill:#37628f;fill-opacity:1;fill-rule:nonzero;stroke:none"
         id="path66" /><path
         d="m 6960.36,9196 c 139.03,-430.7 -88.9,-679.5 -151.5,-1082.5 -50.24,-322.6 70.47,-614.4 57.09,-929.5 -8.66,-203.3 -121.5,-377.4 -173.76,-569.3 -23.38,-86 -39.68,-173.6 -52.04,-261.8 -116.77,-840.9 -305.93,-1677.5 -470.59,-2511.7 -39.45,-199.8 -73.61,-415.7 -125.2,-626.8 -65.3,-267.7 -158.48,-527.7 -325.27,-737.4 -395.96,-497.8 -1348.05,-691 -1850.78,-232.3 -300.09,273.9 -415.52,709.8 -456.43,1100 -90.82,865.1 169.6,1791.7 459.35,2596.8 101.38,281.7 238.16,549.1 341.34,830.1 97.44,265.7 161.73,527.6 190.28,809.4 20.12,198.3 67.21,392.5 162.3,568.8 111.49,206.9 304.24,355.5 372.35,586.9 92.62,314.5 33.05,679.1 353.71,882.1 35.85,22.7 77.1,34.1 105.2,62.2 5.73,-27.2 12.36,-54.3 20.23,-81.3 26.97,-92.3 72.83,-182.8 90.47,-277.5 13.5,-72.4 29.45,-114.7 76.55,-174.8 84.18,-107.4 189.49,-199.3 307.17,-268.3 216.24,-126.9 501.05,-180.6 713.92,-17.2 161.62,123.8 223.66,296.2 287.28,473.1 l 0.22,-0.1 c 49.34,-26.8 51.36,-87 68.11,-138.9"
         style="fill:#4f95cf;fill-opacity:1;fill-rule:nonzero;stroke:none"
         id="path68" /><path
         d="m 9143.27,11660 c 0,7.1 0.22,14.1 0.56,21 6.4,141.3 8.88,283.1 0.56,424.4 -4.16,70.7 -11.02,141.2 -21.47,211.1 -4.49,29.7 -14.05,59.2 -19.33,87.4 -4.84,26.4 2.47,67.1 -15.85,88.9 l 13.04,22.6 c 16.86,-9.8 33.83,-19.4 50.91,-29.1 16.3,-20.8 31.7,-41.2 46.31,-56.6 82.05,-86.5 157.35,-172.7 253.22,-245 140.38,-106 287.06,-212.5 452.05,-276.6 187.33,-73 401.33,-124.8 601.83,-140.9 179.5,-14.4 347.3,30.1 520.7,40.6 1.8,-25.9 4.3,-51.6 7.5,-77.1 2.2,-18.3 5,-36.3 8.2,-54.3 -2,-0.2 -4.2,-0.4 -6.2,-0.8 1.1,-7.7 4.5,-7.3 8,-9.4 8.1,-45 17.8,-89.1 26.2,-133.5 11.2,-60.6 19.5,-121.7 16.1,-185.6 -6.1,-117.6 -38.8,-233 -91.2,-338.2 -103.8,-208.5 -285.3,-381.3 -503.1,-466 -42.9,-16.7 -85.4,-36 -128.9,-51.1 -77.7,-27.2 -167.5,-38 -249.5,-33.6 -83.3,4.4 -171.53,20.9 -252.11,42.4 -133.98,35.6 -245.81,72.2 -359.55,155.7 -171.74,126 -304.7,310.1 -358.32,517.4 -21.12,81.1 -22.47,143.6 -6.51,223.2 7.42,36.9 9.44,74.7 9.44,112.9 0,50.2 -3.48,100.7 -2.58,150.2"
         style="fill:#f5b49b;fill-opacity:1;fill-rule:nonzero;stroke:none"
         id="path70" /><path
         d="m 11320.4,15861.4 c 33.5,-54.5 2.5,-113.1 -57.7,-122 -56.2,-8.4 -111.1,16.1 -162.9,34.1 -23.6,8.3 -49,18.1 -72.9,23.9 -29.7,7.3 -58.9,-2 -88.8,-1.1 -86.2,2.7 -162.4,-30.5 -242.9,-56.1 -21.4,-6.7 -48.8,-9.2 -70.4,3.2 -73.7,42.4 -16,114.5 28.4,154 31,27.7 58.6,44.7 97.5,59.4 50,18.9 107.3,39.6 159.9,47.6 45.6,7.1 93,10.4 138.9,5.3 94.3,-10.3 219.3,-64.7 270.9,-148.3"
         style="fill:#1e244a;fill-opacity:1;fill-rule:nonzero;stroke:none"
         id="path72" /><path
         d="m 9415.6,15861.4 c 33.6,-54.5 2.47,-113.1 -57.78,-122 -56.19,-8.4 -110.93,16.1 -162.74,34.1 -23.61,8.3 -49.01,18.1 -72.95,23.9 -29.67,7.3 -58.89,-2 -88.9,-1.1 -86.2,2.7 -162.29,-30.5 -242.88,-56.1 -21.24,-6.7 -48.67,-9.2 -70.25,3.2 -73.73,42.4 -16.07,114.5 28.33,154 31.02,27.7 58.55,44.7 97.55,59.4 50.02,18.9 107.34,39.6 159.83,47.6 45.63,7.1 93.06,10.4 138.8,5.3 94.3,-10.3 219.51,-64.7 270.99,-148.3"
         style="fill:#1e244a;fill-opacity:1;fill-rule:nonzero;stroke:none"
         id="path74" /><path
         d="m 9258.47,15072.2 c 13.6,-70.3 -9.22,-145.1 -48,-203.7 -43.04,-65 -138.01,-73.4 -208.59,-54 -157.47,43.2 -203.89,230.3 -93.74,347.3 59,62.6 158.7,107.1 241.08,63.5 50.69,-26.8 98.46,-97.5 109.25,-153.1"
         style="fill:#2b1a0f;fill-opacity:1;fill-rule:nonzero;stroke:none"
         id="path76" /><path
         d="m 9210.47,14868.5 c 38.78,58.6 61.6,133.4 48,203.7 -10.79,55.6 -58.56,126.3 -109.25,153.1 -82.38,43.6 -182.08,-0.9 -241.08,-63.5 -110.15,-117 -63.73,-304.1 93.74,-347.3 70.58,-19.4 165.55,-11 208.59,54 z m 147.35,870.9 c 60.25,8.9 91.38,67.5 57.78,122 -51.48,83.6 -176.69,138 -270.99,148.3 -45.74,5.1 -93.17,1.8 -138.8,-5.3 -52.49,-8 -109.81,-28.7 -159.83,-47.6 -39,-14.7 -66.53,-31.7 -97.55,-59.4 -44.4,-39.5 -102.06,-111.6 -28.33,-154 21.58,-12.4 49.01,-9.9 70.25,-3.2 80.59,25.6 156.68,58.8 242.88,56.1 30.01,-0.9 59.23,8.4 88.9,1.1 23.94,-5.8 49.34,-15.6 72.95,-23.9 51.81,-18 106.55,-42.5 162.74,-34.1 z m 1233.48,-2260.2 c 81.5,83.8 190.4,222.7 140.3,346.1 -27.8,68.2 -86.8,101.3 -155.3,116.2 -74.5,16.2 -146.1,-14.2 -219.3,-23.7 -80.1,-10.5 -161.3,-6.4 -241.9,-10.2 -61.6,-2.8 -122.81,-5.2 -184.63,-0.9 -65.87,4.8 -133.3,5.8 -198.94,12.5 -71.26,7.4 -156.23,-13.4 -200.51,-73.4 -53.5,-72.4 -15.84,-189.7 31.81,-254.2 60.92,-82.4 141.39,-149.5 226.7,-205.6 94.18,-61.9 182.3,-86.6 292.97,-101 196.7,-25.4 373.5,55.2 508.8,194.2 z m 494.6,1389.3 c 38.7,58.6 61.5,133.4 47.9,203.7 -10.8,55.6 -58.5,126.3 -109.2,153.1 -82.4,43.6 -182.2,-0.9 -241.1,-63.5 -110.2,-117 -63.8,-304.1 93.8,-347.3 70.6,-19.4 165.5,-11 208.6,54 z m 176.8,870.9 c 60.2,8.9 91.2,67.5 57.7,122 -51.6,83.6 -176.6,138 -270.9,148.3 -45.9,5.1 -93.3,1.8 -138.9,-5.3 -52.6,-8 -109.9,-28.7 -159.9,-47.6 -38.9,-14.7 -66.5,-31.7 -97.5,-59.4 -44.4,-39.5 -102.1,-111.6 -28.4,-154 21.6,-12.4 49,-9.9 70.4,-3.2 80.5,25.6 156.7,58.8 242.9,56.1 29.9,-0.9 59.1,8.4 88.8,1.1 23.9,-5.8 49.3,-15.6 72.9,-23.9 51.8,-18 106.7,-42.5 162.9,-34.1 z M 9151.69,12486.3 c -17.08,9.7 -34.05,19.3 -50.91,29.1 -97.56,56 -193.32,115.6 -287.17,182 -184.88,130.9 -382.92,280.6 -519.36,463.6 -80.82,108.2 -164.44,211.9 -248.96,317.8 -75.19,94.1 -123.74,206.3 -196.57,302.1 -77.44,102 -164.66,118.2 -272.22,179.1 -109.58,62.2 -212.42,147.1 -286.04,249.9 -28.77,40 -59,70 -79.12,115.5 -21.81,49.2 -43.27,97.2 -56.99,149.5 -27.42,104.5 -28.88,217 13.04,318.1 34.5,83 119.92,145.6 209.39,154.6 119.36,11.9 160.38,-74.5 222.42,-156.1 4.95,-36 10.46,-71.8 16.75,-107.7 13.49,-77.2 19.33,-156.6 72.61,-219 51.02,-60 122.5,-78.5 176.01,-11.7 51.81,64.7 52.49,150.4 51.36,229.2 -2.7,192.6 -50.35,395.4 25.17,580.5 33.16,81.1 86.21,151.7 133.98,224.4 21.8,33.2 46.19,60.1 62.38,96.7 17.87,40.4 32.36,82.1 53.5,121.1 81.59,149.7 112.61,311.5 126.66,480.1 8.1,96.7 -20.12,189.7 -10.33,287.4 7.86,77.7 21.35,155.5 45.74,230 35.07,107.7 96.99,208.2 187.58,277.9 100.48,77.3 221.75,84.8 342.69,93.1 116.66,8 226.13,2.4 341.79,-22 234.56,-49.2 463.73,-146 705.94,-150.4 94.17,-1.8 189.57,13.2 276.67,49.8 276.4,116.1 569.1,136.6 866.3,118.7 43.1,-2.6 71.1,0.2 115.2,-3.1 183.7,-13.8 385,-87.3 483,-253.6 107.3,-182 92.8,-384 92.5,-584.2 -0.1,-128.6 7.8,-247.4 37.8,-373.5 27,-113.8 67.4,-236.3 133.3,-333.1 126.9,-186.6 165.9,-433.1 172.2,-653.5 1.9,-66.8 -22.1,-429.4 102.8,-411 38.2,5.7 64.5,53.9 75.9,85.3 13.2,36.7 16.6,72.5 19.6,111.4 3.8,48.1 7.4,112.5 4.5,159.9 -0.9,14.6 -1.5,29.1 -2.1,43.6 l 5.9,0.2 c 105.8,158.4 334,76.5 396.9,-74.9 43.3,-104.3 41.7,-220.4 13.4,-328.3 -14.2,-54 -36.3,-103.5 -58.8,-154.4 -20.8,-47 -52,-78 -81.6,-119.3 -76.1,-106 -182.3,-193.8 -295.5,-257.8 -83.4,-47.4 -171.5,-85.5 -256.9,-128.8 l -6.1,2.7 c -108.2,-247.1 -241.8,-503.1 -407.6,-703.2 -129.7,-156.6 -287.9,-311.2 -434.7,-452.5 -42.9,-41.1 -90.6,-82.3 -142.3,-122.6 -251,-195.3 -592,-365.2 -884,-374.8 l -0.2,-6.5 c -109.1,3.1 -225.38,22.2 -331.82,51.3 -132.06,36 -261.54,78 -382.59,141.4 -98.68,51.7 -195.79,102.5 -291.1,156"
         style="fill:#f5b49b;fill-opacity:1;fill-rule:nonzero;stroke:none"
         id="path78" /><path
         d="m 5089.6,16390.7 c -51.49,-21.7 -107.15,-63 -117.02,-108.1 -5.33,-24.4 2.14,-50.4 -4.31,-74.5 -10.77,-40.3 -54.38,-60.4 -85.55,-88 -52.51,-46.7 -72.11,-126.8 -47.05,-192.4 20.02,-52.4 65.26,-95.4 71.13,-151.2 4.98,-47.3 -17.66,-103 14.28,-138.2 27.09,-29.9 75.18,-23 113.02,-37 48.65,-17.9 77.73,-69.6 124.95,-91 68.45,-31.1 146.47,10.6 221.55,13.9 45.5,2.1 90.27,-10.3 135.49,-15.7 45.21,-5.5 94.65,-3 130.9,24.6 39.72,30.2 54.25,82.7 83.81,122.9 29.05,39.5 71.82,66.1 109.6,97.3 37.76,31.3 72.99,71.9 76.67,120.8 5,66.3 -48.32,121.8 -67.4,185.6 -12.49,41.7 -9.96,86.3 -14.62,129.6 -4.36,40.6 -17.76,94 -59.89,109.9 -22.94,8.7 -48.13,9.1 -71.89,15.1 -75.29,19.3 -125.6,91.6 -197.3,121.5 -46.09,19.3 -98.33,19.6 -147.32,9.9 -46.16,-9.1 -92.93,-39.1 -139.51,-39.9 -46.16,-0.8 -85.02,3.8 -129.54,-15.1"
         style="fill:#ffffff;fill-opacity:1;fill-rule:nonzero;stroke:none"
         id="path80" /><path
         d="m 9669.64,1915.9 c -35.44,106.3 -32.93,213.9 -51.75,324.7 -45.24,266.4 -75.02,535.2 -98.76,804.2 -11.33,128.5 -4.43,271.9 -33.13,397.3 -22.75,99.6 -29.5,194.2 -35.49,297.4 -28.8,495.7 -114.56,988.1 -254.19,1464.6 5.72,-34.3 11.15,-68.8 16.07,-103.5 54.29,-383.2 82.33,-769.5 100.5,-1156 0.75,-15.9 1.51,-31.8 2.22,-47.7 9,-199 15.52,-398 21.81,-596.9 12.47,-391.4 23.27,-775.7 21.91,-1168.1 -0.9,-291.8 -11.57,-583.5 -25.73,-874.9 h 426 c -6.55,87.7 -18.49,175.5 -30.57,262.2 -17.7,127 -18.32,275.1 -58.89,396.7"
         style="fill:#ededed;fill-opacity:1;fill-rule:nonzero;stroke:none"
         id="path82" /><path
         d="m 11927.5,9998 c -26.6,164.3 -38,327.6 -78.7,489.9 -79.7,317.5 -224.5,627.1 -472.5,847.8 -91.7,81.6 -217.3,121.1 -306.8,197 11.2,-60.6 19.5,-121.7 16.1,-185.6 -6.1,-117.6 -38.8,-233 -91.2,-338.2 -103.8,-208.5 -285.3,-381.3 -503.1,-466 -42.9,-16.7 -85.4,-36 -128.9,-51.1 -77.7,-27.2 -167.5,-38 -249.5,-33.6 -83.3,4.4 -171.53,20.9 -252.12,42.4 -133.97,35.6 -245.8,72.2 -359.54,155.7 -171.74,126 -304.7,310.1 -358.32,517.4 -21.12,81.1 -22.47,143.6 -6.51,223.2 7.42,36.9 9.44,74.7 9.44,112.9 -26.3,-26.9 -82.95,-58.6 -114.87,-87.4 -201.63,-182.1 -303.8,-493.1 -395.85,-741.1 -169.49,-456.3 -204.44,-943.7 -208.6,-1426.4 -4.16,-492.5 26.53,-982.8 103.74,-1470.4 41.36,-261.5 95.54,-521 164.54,-776.6 165.05,-611.4 397.19,-1177.5 501.51,-1803.8 139.63,-476.5 225.39,-968.9 254.19,-1464.6 5.99,-103.2 12.74,-197.8 35.49,-297.4 28.7,-125.4 21.8,-268.8 33.13,-397.3 23.74,-269 53.52,-537.8 98.76,-804.2 18.82,-110.8 16.31,-218.4 51.75,-324.7 40.57,-121.6 41.19,-269.7 58.89,-396.7 12.08,-86.7 24.02,-174.5 30.57,-262.2 h 411.6 1154.1 c 3.7,405.4 9,813.7 -27.1,1215.6 -30.3,338 -48.5,677.5 -39.4,1016.9 7.5,278.8 -14.6,561.5 -5.2,842.3 10.5,314.2 78,626.6 90.9,942.1 9.7,235.3 50.2,462.9 100,692.9 57.1,263.9 53.5,535.8 125.6,799 73,265.8 150.3,530.1 203,802.3 48,247.6 77.5,497.3 128.2,743.7 115.1,558.5 117.9,1123.6 26.7,1686.2"
         style="fill:#fffbf2;fill-opacity:1;fill-rule:nonzero;stroke:none"
         id="path84" /><path
         d="m 10391.5,17183.3 c -7.1,0 -14.2,2.7 -19.7,8.1 -11,10.9 -11.2,28.7 -0.3,39.7 204.5,207.2 298.6,479.6 363.8,718.7 4.1,15 19.6,23.8 34.5,19.8 14.9,-4.1 23.8,-19.6 19.7,-34.5 -119.5,-438.7 -258.1,-622 -378,-743.5 -5.5,-5.5 -12.7,-8.3 -20,-8.3"
         style="fill:#000000;fill-opacity:1;fill-rule:nonzero;stroke:none"
         id="path86" /><path
         d="m 10843,17172.4 c -11.6,0 -22.5,7.3 -26.6,18.9 -5.1,14.6 2.6,30.6 17.3,35.8 149.3,52.3 283.3,129.9 398.4,230.9 11.7,10.2 29.4,9.1 39.6,-2.6 10.3,-11.7 9.1,-29.4 -2.5,-39.6 -120.6,-105.8 -260.8,-187.1 -416.9,-241.8 -3.1,-1 -6.3,-1.6 -9.3,-1.6"
         style="fill:#000000;fill-opacity:1;fill-rule:nonzero;stroke:none"
         id="path88" /><path
         d="m 9553.21,17444.7 c -12.95,0 -24.6,9 -27.44,22.2 -63.14,292.5 -227.17,513.8 -450.02,607.1 -14.32,6 -21.06,22.5 -15.07,36.8 6,14.3 22.49,21 36.78,15.1 240.04,-100.6 416.17,-336.5 483.24,-647.2 3.28,-15.1 -6.36,-30.1 -21.53,-33.4 -2,-0.4 -3.99,-0.6 -5.96,-0.6"
         style="fill:#000000;fill-opacity:1;fill-rule:nonzero;stroke:none"
         id="path90" /><path
         d="m 8607.24,17458 c -4.63,0 -9.31,1.2 -13.64,3.6 -169.61,94.3 -332.34,131.4 -483.6,110.1 -15.42,-2.2 -29.57,8.6 -31.73,23.9 -2.16,15.4 8.55,29.6 23.91,31.8 163.67,23 338.21,-16.3 518.74,-116.7 13.56,-7.5 18.44,-24.6 10.9,-38.2 -5.14,-9.2 -14.72,-14.5 -24.58,-14.5"
         style="fill:#000000;fill-opacity:1;fill-rule:nonzero;stroke:none"
         id="path92" /><path
         d="m 10166.2,14287.1 c -29.6,0 -60.9,7.1 -93.4,21.3 -55.6,24.3 -96.56,50.3 -128.89,81.6 -11.14,10.8 -11.41,28.6 -0.61,39.7 10.8,11.2 28.59,11.5 39.73,0.7 27.37,-26.6 63.07,-49 112.27,-70.5 32.8,-14.3 63,-19.5 89.8,-15.2 20.4,3.3 41.1,9.7 61.4,19.1 26.7,12.3 107.5,49.7 54.4,224.2 -17.6,57.6 -38.3,115.5 -58.3,171.4 -18.3,51.1 -37.2,104 -53.8,156.9 -9.6,30.7 -12.2,60.5 -14.7,89.2 -1.2,13.8 -2.3,26.9 -4.2,40.1 -14.4,102.4 -5.4,208 6.4,306.9 1.8,15.4 15.8,26.4 31.2,24.6 15.4,-1.9 26.4,-15.8 24.6,-31.3 -11.4,-95.1 -20,-196.3 -6.5,-292.4 2,-14.7 3.3,-29.1 4.5,-43 2.3,-27 4.5,-52.4 12.3,-77.2 16.3,-51.9 35,-104.2 53.1,-154.8 20.3,-56.6 41.2,-115.1 59.2,-174 55.7,-183 -15.3,-259.5 -84.6,-291.6 -24.9,-11.5 -50.6,-19.5 -76.2,-23.6 -9.1,-1.4 -18.3,-2.1 -27.7,-2.1"
         style="fill:#ab684d;fill-opacity:1;fill-rule:nonzero;stroke:none"
         id="path94" /><path
         d="m 7684.16,14115.4 c -10.3,0 -20.21,5.7 -25.14,15.5 -14.52,29 -42.15,47.7 -71.4,67.5 -33.94,22.9 -72.4,48.9 -90.58,94.5 -18.79,47 -5.88,88.6 5.5,125.2 4.94,15.9 9.59,30.9 11.79,46 2.18,14.9 -2.74,28.4 -8.97,45.5 -2.98,8.2 -6.07,16.6 -8.64,26 -8.22,30.1 -15.59,48 -33.02,62.3 -44.76,36.7 -84.8,54.8 -112.65,51 -14.69,-2 -27.03,-10.3 -37.72,-25.5 -8.93,-12.6 -26.46,-15.7 -39.16,-6.7 -12.68,8.9 -15.7,26.5 -6.76,39.1 19.9,28.3 45.5,44.7 76.09,48.8 44.82,6 97.2,-15.2 155.84,-63.3 31.8,-26 42.92,-59.2 51.59,-90.9 1.95,-7.1 4.51,-14.1 7.23,-21.6 7.5,-20.5 16.01,-43.9 11.78,-72.9 -2.84,-19.3 -8.37,-37.2 -13.73,-54.4 -10.27,-33.1 -18.38,-59.2 -6.98,-87.8 11.78,-29.5 38.69,-47.7 69.86,-68.8 32.37,-21.9 69.06,-46.7 90.16,-88.8 6.96,-13.8 1.35,-30.7 -12.52,-37.7 -4.04,-2 -8.34,-3 -12.57,-3"
         style="fill:#ab684d;fill-opacity:1;fill-rule:nonzero;stroke:none"
         id="path96" /><path
         d="m 12224.6,14082 c -4.2,0 -8.5,0.9 -12.5,3 -13.9,6.9 -19.5,23.8 -12.6,37.7 21.7,43.2 59.5,68.7 92.8,91.3 32.3,21.8 60.2,40.7 72.5,71.4 11.9,29.8 3,58.3 -7.2,91.2 -5.5,17.8 -11.3,36.2 -14.2,56.1 -4.3,29.7 4.4,53.7 12.1,74.8 2.8,7.7 5.5,15 7.5,22.4 8.9,32.6 20.4,66.6 53,93.4 60.3,49.4 114.2,71.4 160.2,65.1 31.3,-4.2 57.5,-21.1 77.9,-50 8.9,-12.6 5.9,-30.2 -6.8,-39.1 -12.6,-9 -30.2,-6 -39.1,6.7 -11.2,15.9 -24.1,24.6 -39.6,26.7 -29,3.9 -70.6,-14.8 -117,-52.9 -18.2,-14.9 -25.8,-33.5 -34.4,-64.7 -2.6,-9.7 -5.8,-18.4 -8.9,-26.8 -6.4,-17.8 -11.5,-31.8 -9.3,-47.4 2.3,-15.6 7.1,-31.2 12.2,-47.6 11.7,-37.7 25,-80.4 5.8,-128.7 -18.7,-46.8 -56.6,-72.4 -93.2,-97.2 -30.3,-20.5 -58.9,-39.8 -74,-69.9 -5,-9.8 -14.9,-15.5 -25.2,-15.5"
         style="fill:#ab684d;fill-opacity:1;fill-rule:nonzero;stroke:none"
         id="path98" /><path
         d="m 6783.3,10818.3 c -6.45,0 -11.31,1.4 -15.55,2.9 -1.65,0.6 -1.86,0.7 -3.32,0.8 -15.47,1.2 -27.02,14.7 -25.81,30.2 1.22,15.5 14.76,27 30.22,25.8 6.83,-0.5 11.59,-1.8 15.46,-3.1 2.69,0.6 5.46,0.8 8.2,0.7 74.58,-5.7 139.53,87.4 162.99,147.1 38.99,99.4 49.9,214.4 32.42,342 -14.78,107.9 -34.13,219.6 -92.78,295.4 -11,14.3 -22.05,28.7 -33.19,43.2 -9.43,12.3 -7.09,30 5.23,39.4 12.32,9.4 29.95,7.1 39.39,-5.2 11.08,-14.5 22.08,-28.8 33.02,-43 67.13,-86.8 88.19,-206.7 104,-322.2 18.8,-137.2 6.76,-261.7 -35.78,-370.1 -17.55,-44.7 -46.52,-89.1 -79.49,-121.8 -42.26,-42 -89.06,-63 -135.48,-61.1 -3.54,-0.7 -6.69,-1 -9.53,-1"
         style="fill:#ab684d;fill-opacity:1;fill-rule:nonzero;stroke:none"
         id="path100" /><path
         d="m 5809.5,12089.6 c -8.53,0 -16.96,3.8 -22.48,11.2 -9.32,12.4 -6.83,30 5.57,39.3 91.96,69.2 207.08,112.9 324.16,123 15.39,1.4 29.08,-10.1 30.42,-25.5 1.35,-15.5 -10.1,-29.1 -25.56,-30.5 -106.74,-9.2 -211.59,-49 -295.24,-111.9 -5.06,-3.8 -10.99,-5.6 -16.87,-5.6"
         style="fill:#ab684d;fill-opacity:1;fill-rule:nonzero;stroke:none"
         id="path102" /><path
         d="m 6381.62,10391.3 c -38.12,0 -73.83,10.2 -99.4,37.6 -1.78,1.8 -8.67,5 -13.23,7.1 -15.22,7 -40.68,18.8 -43.17,48.2 -1.32,15.5 10.15,29.1 25.62,30.4 14.3,1.1 26.8,-8.4 29.8,-21.9 2.71,-1.7 7.78,-4.1 11.37,-5.7 10.1,-4.7 21.56,-10 30.67,-19.8 42.15,-45.1 161,-4.1 212.89,30.5 145.07,96.8 249.86,337.1 158.34,591.7 -10.95,30.5 -32.32,60.5 -52.99,89.6 -8.09,11.4 -16.46,23.1 -24.16,34.9 -122.12,186 -242.76,292.8 -358.57,317.5 -124.35,26.4 -263.27,5.4 -335.02,-9.5 -15.18,-3.2 -30.07,6.6 -33.22,21.8 -3.16,15.2 6.6,30 21.79,33.2 76.06,15.8 223.72,38 358.14,9.5 132.65,-28.3 261.49,-140 393.87,-341.7 7.11,-10.8 14.82,-21.7 22.97,-33.2 22.87,-32.1 46.52,-65.4 60.07,-103.1 75.52,-210.1 38.08,-511.9 -180.03,-657.5 -38.17,-25.4 -115.96,-59.6 -185.74,-59.6"
         style="fill:#ab684d;fill-opacity:1;fill-rule:nonzero;stroke:none"
         id="path104" /><path
         d="m 6004,10092.9 c -51.03,0 -99.42,23.9 -134.79,70.1 -28.71,37.5 -47.66,84.4 -50.69,125.3 -1.31,17.7 0.3,35.4 1.86,52.5 2.41,26.6 4.69,51.6 -4.36,71.1 -22.72,49 -64.53,82.7 -108.8,118.5 l -14.71,11.9 c -12.02,9.9 -13.8,27.6 -3.98,39.6 9.8,12 27.51,13.8 39.53,4 l 14.48,-11.8 c 47.31,-38.2 96.24,-77.8 124.46,-138.6 15.41,-33.2 12.19,-68.5 9.35,-99.7 -1.41,-15.6 -2.75,-30.3 -1.78,-43.4 2.22,-30 17.27,-66.5 39.27,-95.2 41.52,-54.3 104.15,-63.4 163.42,-23.9 103.11,68.7 144.72,212.6 149.29,324.3 2.34,57.3 -6.47,119 -26.2,183.3 -20.62,67.2 -75.74,123 -129.05,177.1 l -12.81,13 c -62.53,63.7 -131.62,110 -205.36,137.6 -14.53,5.4 -21.91,21.6 -16.47,36.2 5.42,14.5 21.62,21.9 36.15,16.4 81.49,-30.4 157.46,-81.2 225.8,-150.9 l 12.69,-12.9 c 55.37,-56.1 118.11,-119.6 142.77,-200 21.6,-70.4 31.23,-138.4 28.63,-202.1 -6.65,-162.6 -71.79,-300.5 -174.27,-368.8 -33.85,-22.6 -69.75,-33.6 -104.43,-33.6"
         style="fill:#ab684d;fill-opacity:1;fill-rule:nonzero;stroke:none"
         id="path106" /><path
         d="m 6341.51,10035.4 c -2.7,0 -5.45,0.4 -8.17,1.2 -14.85,4.5 -23.23,20.2 -18.73,35 41.16,135.7 90.05,237 158.53,328.5 12.24,16.3 23.3,31.4 34.17,46.2 15.92,21.7 30.96,42.2 48.87,65.6 9.43,12.4 27.06,14.7 39.39,5.3 12.33,-9.4 14.68,-27.1 5.26,-39.4 -17.58,-23 -32.46,-43.2 -48.21,-64.7 -10.98,-15 -22.15,-30.2 -34.49,-46.7 -64.39,-86 -110.57,-181.9 -149.74,-311.1 -3.68,-12.1 -14.83,-19.9 -26.88,-19.9"
         style="fill:#ab684d;fill-opacity:1;fill-rule:nonzero;stroke:none"
         id="path108" /><path
         d="m 6049.54,3207.5 c -2.16,0 -4.35,0.2 -6.54,0.7 -15.09,3.6 -24.42,18.8 -20.82,33.9 32.95,138.2 58.9,278.7 83.99,414.6 12.16,65.8 23.63,127.9 35.88,190 40.73,206.4 83.67,416.5 125.2,619.6 126.49,618.7 257.28,1258.4 345.13,1890.5 13.64,98.1 30.89,184.9 52.75,265.3 19.69,72.4 47.99,142.7 75.34,210.7 47.4,117.7 92.16,229 97.4,352.4 5.75,135.7 -14.39,270.6 -33.87,401 -25.44,170.3 -51.74,346.5 -22.95,531.6 21.44,138 61.51,256.9 100.26,372 76.05,225.7 141.73,420.7 52.32,697.5 -4.2,13 -7.45,26.2 -10.61,38.9 -9.24,37.2 -17.21,69.4 -44.26,84.1 -13.62,7.4 -18.66,24.5 -11.24,38.1 7.42,13.6 24.5,18.7 38.12,11.2 48.75,-26.5 61.06,-76.1 71.92,-119.9 3.06,-12.3 5.95,-24 9.54,-35.1 95.12,-294.5 23.4,-507.4 -52.53,-732.8 -38,-112.8 -77.28,-229.4 -97.99,-362.6 -27.48,-176.7 -1.82,-348.5 23,-514.7 19.87,-133.1 40.41,-270.6 34.43,-411.7 -5.64,-133.1 -54.32,-254 -101.4,-371 -26.76,-66.5 -54.42,-135.2 -73.25,-204.5 -21.23,-78 -38.01,-162.5 -51.32,-258.3 -88.09,-633.8 -219.07,-1274.4 -345.73,-1894 -41.51,-203 -84.43,-413 -125.12,-619.2 -12.19,-61.7 -23.64,-123.7 -35.75,-189.3 -25.23,-136.6 -51.31,-277.9 -84.59,-417.4 -3.08,-12.9 -14.6,-21.6 -27.31,-21.6"
         style="fill:#2e5378;fill-opacity:1;fill-rule:nonzero;stroke:none"
         id="path110" /><path
         d="m 5998.87,7444.3 c -7.2,0 -14.41,2.8 -19.9,8.3 -239.12,240 -452.31,505.1 -698.84,829.4 -9.39,12.4 -6.99,30 5.36,39.4 12.36,9.4 29.99,7 39.38,-5.4 245.16,-322.5 456.99,-586 693.9,-823.7 10.96,-11 10.93,-28.8 -0.06,-39.8 -5.49,-5.4 -12.67,-8.2 -19.84,-8.2"
         style="fill:#2e5378;fill-opacity:1;fill-rule:nonzero;stroke:none"
         id="path112" /><path
         d="m 5544.23,6808 c -132.14,0 -272.34,24.8 -428.27,75.1 -14.77,4.8 -22.88,20.6 -18.12,35.4 4.77,14.8 20.62,22.9 35.37,18.1 237.67,-76.7 436.25,-92 624.94,-48.1 15.12,3.5 30.21,-5.9 33.73,-21 3.51,-15.2 -5.9,-30.3 -21.02,-33.8 -73.77,-17.1 -148.8,-25.7 -226.63,-25.7"
         style="fill:#2e5378;fill-opacity:1;fill-rule:nonzero;stroke:none"
         id="path114" /><path
         d="m 13970.6,1218.7 c -0.1,0 -0.2,0 -0.2,0 -15.6,0.1 -28,12.8 -27.9,28.3 1.8,193.1 -15.2,392.4 -31.6,585.1 -14.3,167.4 -29,340.5 -31.4,508.6 -4.4,309.6 -20,624.5 -35.2,929 -5.4,109.7 -11.1,223.1 -16.1,334.7 -29.8,660.3 -74.9,1288.3 -137.9,1920 -66.4,665.8 -122.7,1317.1 -82.4,1965.4 29.1,469.2 132.5,969.9 315.9,1530.9 4.8,14.7 20.7,22.7 35.4,17.9 14.8,-4.8 22.8,-20.7 18,-35.4 -181.9,-556.4 -284.4,-1052.5 -313.2,-1516.8 -40,-644.2 16,-1293 82.2,-1956.4 63.1,-632.7 108.3,-1261.7 138.1,-1923.1 5.1,-111.4 10.7,-224.8 16.2,-334.4 15.1,-305 30.8,-620.4 35.2,-931 2.4,-166.1 17,-338.2 31.2,-504.6 16.5,-194.1 33.6,-394.7 31.8,-590.4 -0.1,-15.4 -12.7,-27.8 -28.1,-27.8"
         style="fill:#2e5378;fill-opacity:1;fill-rule:nonzero;stroke:none"
         id="path116" /><path
         d="m 14828.6,2304.2 c -8,0 -15.9,3.4 -21.5,10 -10,11.8 -8.5,29.6 3.4,39.6 297.7,250.8 506.2,501.2 619.9,744.2 6.6,14 23.3,20.1 37.3,13.5 14.1,-6.6 20.2,-23.3 13.6,-37.4 -117.1,-250.3 -330.6,-507.2 -634.6,-763.3 -5.3,-4.5 -11.7,-6.6 -18.1,-6.6"
         style="fill:#2e5378;fill-opacity:1;fill-rule:nonzero;stroke:none"
         id="path118" /><path
         d="m 5589.09,14498 c -3.93,0 -7.92,0.7 -11.8,2.3 -12.37,5 -24.67,10.7 -36.57,16.3 -17.34,8.2 -33.7,15.9 -50.16,21.3 -87.86,28.8 -175.88,66.2 -260.99,102.3 l -24.59,10.5 c -16.07,6.8 -23.58,25.3 -16.77,41.4 6.81,16.1 25.34,23.6 41.43,16.8 l 24.64,-10.5 c 83.9,-35.6 170.67,-72.5 255.99,-100.5 20.13,-6.6 39.04,-15.5 57.33,-24.1 11.62,-5.4 22.59,-10.6 33.31,-14.9 16.19,-6.5 24.03,-24.9 17.51,-41.1 -4.96,-12.3 -16.81,-19.8 -29.33,-19.8"
         style="fill:#a19086;fill-opacity:1;fill-rule:nonzero;stroke:none"
         id="path120" /><path
         d="m 5605.21,14669.1 c 0,-0.1 0,-0.1 0.01,-0.1 -0.01,0 -0.01,0 -0.01,0.1 z m 29.14,-22.8 c -8.49,0 -16.22,2.9 -21.14,4.7 l -2.62,0.9 c -12.25,4.1 -22.64,7.9 -31.78,11.6 l -7.15,2.9 c -18.44,7.6 -31.76,13.1 -50.33,17.5 -83.51,19.6 -166.95,47.1 -247.65,73.7 -26.47,8.7 -52.84,17.4 -79.1,25.8 -16.63,5.3 -25.81,23 -20.5,39.7 5.3,16.6 23.09,25.8 39.71,20.5 26.44,-8.4 53.01,-17.2 79.66,-26 79.42,-26.1 161.55,-53.2 242.38,-72.2 23.44,-5.5 40.31,-12.5 59.84,-20.5 l 7.02,-2.9 c 7.85,-3.2 16.96,-6.5 27.87,-10.1 0.82,-0.3 1.73,-0.6 2.7,-1 13.69,0.8 26.94,-7.5 31.68,-21.2 4.22,-12.1 1.22,-25.2 -7.81,-34.1 -7.22,-7.1 -15.29,-9.3 -22.78,-9.3"
         style="fill:#a19086;fill-opacity:1;fill-rule:nonzero;stroke:none"
         id="path122" /><path
         d="m 5644.04,14770.4 c -15.08,0 -27.57,8.4 -35.03,13.4 -1.61,1.1 -3.12,2.2 -4.55,3 -45.91,23.2 -95.04,36.6 -147.05,50.7 -19.22,5.3 -39.09,10.7 -58.77,16.6 -13.79,4.2 -141.61,47.5 -195.91,71.2 -16,7 -23.31,25.6 -16.32,41.6 6.98,16 25.62,23.3 41.6,16.3 51.1,-22.3 176.08,-64.7 188.91,-68.6 18.83,-5.7 38.27,-10.9 57.07,-16.1 52.79,-14.3 107.38,-29.2 159.09,-55.4 4.19,-2.1 7.95,-4.7 11.27,-6.9 0.94,-0.6 2.13,-1.4 3.22,-2.1 12.9,-0.3 24.86,-8.5 29.28,-21.4 5.65,-16.5 -3.16,-34.5 -19.67,-40.1 -4.55,-1.6 -8.94,-2.2 -13.14,-2.2"
         style="fill:#a19086;fill-opacity:1;fill-rule:nonzero;stroke:none"
         id="path124" /><path
         d="m 5386.94,16138.4 c -13.39,-15.6 -16.62,-55.1 -10.69,-87.3 3.69,-20.3 9.21,-39.7 16.41,-58 7.65,31 9.31,62.1 8.79,87 -0.28,14.3 -7.17,44.4 -14.51,58.3 z m -351.36,-260 c 0.15,-0.2 -2.72,-3.7 -4.43,-14.4 -3.46,-21.7 3.2,-29 5.38,-31.4 11.84,-13.1 39.38,-17.4 67.79,-18.2 -13.9,20.3 -29.12,37.4 -45.99,52 -11.39,9.8 -20.19,12.3 -22.75,12 z m 729.86,0.4 c -1.61,0 -10.54,-2.5 -22.04,-12.4 -16.86,-14.6 -32.07,-31.7 -45.97,-52 28.41,0.8 55.95,5.1 67.79,18.2 2.19,2.4 8.85,9.7 5.39,31.4 -1.86,11.7 -5.1,14.7 -5.13,14.8 -0.02,0 -0.03,0 -0.04,0 z m -280.77,-899.9 c -0.08,0 -0.16,0 -0.24,0 -17.45,0.1 -31.5,14.3 -31.37,31.8 0.48,67 15.48,133.3 29.99,197.5 8.33,36.8 16.19,71.6 21.52,106.4 4.26,27.9 8.16,56.1 12.1,84.5 15.47,111.7 31.47,227.3 70.71,334.4 2.89,7.9 5.85,15.6 8.87,23.1 -22.78,4.1 -45.05,11.9 -63.88,18.6 -53.52,18.7 -99.91,50.6 -136.43,92.1 -9.1,-8.9 -18.72,-16.9 -27.71,-24.4 -5.37,-4.5 -10.7,-8.9 -15.73,-13.3 -22.48,-20.1 -49.3,-42.6 -83.11,-54.4 -18.83,-6.7 -41.1,-14.5 -63.89,-18.6 3.03,-7.5 5.98,-15.2 8.88,-23.1 39.23,-107.1 55.23,-222.7 70.71,-334.4 3.93,-28.4 7.83,-56.6 12.09,-84.4 6.5,-42.6 16.04,-85.9 25.27,-127.8 12.33,-56 25.09,-114 31.3,-172.6 1.83,-17.4 -10.75,-32.9 -28.11,-34.8 -17.34,-1.8 -32.92,10.8 -34.76,28.1 -5.83,55.2 -18.2,111.3 -30.17,165.7 -9.44,42.9 -19.2,87.2 -26.01,131.8 -4.3,28.2 -8.25,56.7 -12.22,85.3 -15.02,108.5 -30.56,220.6 -67.47,321.4 -5.13,14 -10.46,27.2 -16.01,39.6 -51.65,-2 -114.87,0.7 -149.3,38.7 -13.32,14.7 -27.78,41.2 -20.97,83.9 6.97,43.7 31.33,58.7 45.24,63.8 26.03,9.5 57.27,1 85.66,-23.5 29.97,-25.9 55.34,-57.7 77.38,-97.5 0.74,0 1.48,0.1 2.2,0.1 21.34,1.1 46.79,10 69.24,17.9 22.89,8 43.15,25.1 61.94,41.9 5.59,5 11.5,9.9 17.48,14.9 11.31,9.3 22.14,18.3 30.44,27.8 -21.13,35.9 -36.25,76.5 -44.24,120.3 -10.2,55.5 -3.71,130.4 48.16,158.9 17.29,9.5 36.47,9.6 52.65,0.2 45.18,-26.1 49.75,-116.5 49.76,-117.4 0.93,-44.4 -4.22,-105.4 -31.02,-160.4 30.87,-39.4 71.78,-69.4 119.69,-86.2 22.45,-7.9 47.9,-16.8 69.23,-17.9 0.73,0 1.46,-0.1 2.2,-0.1 22.04,39.7 47.4,71.6 77.36,97.4 28.42,24.6 59.65,33.1 85.68,23.6 13.91,-5.1 38.27,-20.1 45.25,-63.8 6.8,-42.7 -7.65,-69.2 -20.98,-83.9 -34.42,-38 -97.62,-40.7 -149.3,-38.7 -5.54,-12.4 -10.87,-25.6 -16.01,-39.6 -36.91,-100.8 -52.44,-212.9 -67.46,-321.4 -3.97,-28.6 -7.92,-57.1 -12.23,-85.3 -5.66,-37.1 -14.14,-74.6 -22.34,-110.9 -13.77,-60.9 -28.01,-123.8 -28.45,-184 -0.12,-17.3 -14.24,-31.3 -31.59,-31.3"
         style="fill:#a84216;fill-opacity:1;fill-rule:nonzero;stroke:none"
         id="path126" /><path
         d="m 8807.46,5037 c -13.71,0 -25.71,10 -27.77,24 -43.48,295.4 -129.34,577.8 -207.6,815.1 -27.1,82.2 -59.84,166.7 -91.5,248.5 -68.2,176.2 -138.71,358.4 -165.31,544 -2.2,15.4 8.47,29.6 23.83,31.8 15.36,2.2 29.6,-8.5 31.8,-23.8 25.69,-179.2 95.03,-358.4 162.09,-531.7 31.91,-82.4 64.91,-167.7 92.46,-251.2 79.01,-239.6 165.72,-524.9 209.83,-824.5 2.26,-15.4 -8.36,-29.7 -23.71,-31.9 -1.38,-0.2 -2.76,-0.3 -4.12,-0.3"
         style="fill:#2e5378;fill-opacity:1;fill-rule:nonzero;stroke:none"
         id="path128" /><path
         d="m 14082.8,9207.6 c -3.6,0 -7.2,0.7 -10.6,2.1 -14.4,5.9 -21.3,22.3 -15.4,36.7 45.6,111.7 110.4,213.7 173,312.2 42.4,66.8 86.3,135.8 122.9,206 7.1,13.8 24.1,19.1 37.9,12 13.7,-7.2 19.1,-24.1 11.9,-37.9 -37.7,-72.4 -82.2,-142.5 -125.2,-210.2 -61.4,-96.5 -124.8,-196.3 -168.5,-303.4 -4.5,-10.9 -15,-17.5 -26,-17.5"
         style="fill:#2e5378;fill-opacity:1;fill-rule:nonzero;stroke:none"
         id="path130" /></g></g></svg>
